<svg id="Layer_1" data-name="Layer 1" xmlns="http://www.w3.org/2000/svg" viewBox="0 0 96 96"><defs><style>.cls-1{fill-rule:evenodd;}</style></defs><title>Artboard 10 copy</title><path class="cls-1" d="M67.09,68.6c3.22,1.39,7.87,1.63,11,.2a10.91,10.91,0,0,0,3.8-3.11v3.08h8.26V27.17H81.39v15a11.43,11.43,0,0,0-8.6-3.42,13.61,13.61,0,0,0-9.07,3.21v-.23A15.47,15.47,0,0,0,34.81,34a15.48,15.48,0,1,0-14.53,23.1L13.57,68.77H23.64L34.77,49.45l0-.07a15.47,15.47,0,0,0,12.35,7.76L40.45,68.77H50.52l7.85-13.63c.23,5.56,3,11,8.72,13.46m-45.72-34a7.09,7.09,0,0,1,6.19,10.57l0,.08,0,0a7.1,7.1,0,1,1-6.12-10.69m26.88,0a7.09,7.09,0,0,1,6.19,10.57l0,.08,0,0a7.1,7.1,0,1,1-6.12-10.69M74.47,46.85a7.39,7.39,0,1,1-7.39,7.39,7.39,7.39,0,0,1,7.39-7.39"/></svg>