<svg id="Layer_1" data-name="Layer 1" xmlns="http://www.w3.org/2000/svg" viewBox="0 0 96 96"><title>Artboard 7</title><path d="M41.15,31a3.43,3.43,0,0,1-1.38-6.56,6.79,6.79,0,0,0-2-.31A6.86,6.86,0,1,0,44.58,31a6.48,6.48,0,0,0-.3-2A3.43,3.43,0,0,1,41.15,31Z"/><path d="M58.33,24.14a6.78,6.78,0,0,0-2,.3A3.43,3.43,0,1,1,51.76,29a6.87,6.87,0,0,0,6.53,8.91,6.86,6.86,0,0,0,0-13.72Z"/><path d="M60,15.2A24,24,0,0,0,36,15.2,23.63,23.63,0,0,0,24,12V36A48,48,0,0,0,72,84V12A23.66,23.66,0,0,0,60,15.2ZM58.28,41.29a10.18,10.18,0,0,1-5.49-1.61L48,44.46l-4.79-4.81A10.29,10.29,0,1,1,48,30.06L48,30l0,.07A10.29,10.29,0,1,1,58.28,41.29Z"/></svg>