<svg xmlns="http://www.w3.org/2000/svg" xmlns:xlink="http://www.w3.org/1999/xlink" viewBox="0 0 53.4 78.1"><defs><symbol id="Solutions" data-name="Solutions" viewBox="0 0 53.4 78.1"><g id="_1" data-name="1"><path d="M43.81,55a1.3,1.3,0,0,0-1.31,1.31A1.59,1.59,0,0,1,41.08,58H15.44A1.58,1.58,0,0,1,14,56.29a1.32,1.32,0,0,0-2.63,0,4.21,4.21,0,0,0,3.91,4.32v1.77a1.31,1.31,0,0,0,0,2.6v1.77a1.31,1.31,0,0,0,0,2.6v.34a4,4,0,0,0,4,4H23v1.08a3.29,3.29,0,0,0,3.3,3.29h3.9a3.29,3.29,0,0,0,3.29-3.29V73.73h3.67a4.05,4.05,0,0,0,4-4v-.36a1.31,1.31,0,0,0,0-2.56V65a1.31,1.31,0,0,0,0-2.56V60.61a4.21,4.21,0,0,0,3.9-4.32A1.31,1.31,0,0,0,43.81,55ZM30.88,74.81a.67.67,0,0,1-.67.67h-3.9a.68.68,0,0,1-.68-.67V73.73h5.25Zm6.29-3.7H19.34a1.43,1.43,0,0,1-1.42-1.42v-.33h2a1.31,1.31,0,1,0,0-2.62h-2V65h2a1.31,1.31,0,0,0,0-2.62h-2V60.62H38.59v1.75H36.12a1.31,1.31,0,0,0,0,2.62h2.47v1.75H36.12a1.31,1.31,0,1,0,0,2.62h2.47v.33A1.42,1.42,0,0,1,37.17,71.11Z"/><path d="M30.44,62.37H25.63a1.31,1.31,0,1,0,0,2.62h4.81a1.31,1.31,0,1,0,0-2.62Z"/><path d="M30.44,66.74H25.63a1.31,1.31,0,1,0,0,2.62h4.81a1.31,1.31,0,0,0,0-2.62Z"/><path d="M31,0a1.28,1.28,0,0,0-1,.33,1.29,1.29,0,0,0-.43,1V54.5a1.31,1.31,0,0,0,1.31,1.31h5.38a5,5,0,0,0,5-5V47a2.41,2.41,0,0,1,1.09-2,25.15,25.15,0,0,0,11-20.8C53.4,11.46,44,1.28,31,0Zm9.88,42.83A5,5,0,0,0,38.66,47v3.79a2.41,2.41,0,0,1-2.4,2.4H32.19V2.8A21.52,21.52,0,0,1,50.78,24.21,22.51,22.51,0,0,1,40.89,42.84Z"/><path d="M44.48,27.33a1.3,1.3,0,0,0-1.65.83,14.18,14.18,0,0,1-2.4,4.42,1.3,1.3,0,0,0,.2,1.84,1.27,1.27,0,0,0,.82.29,1.32,1.32,0,0,0,1-.49A16.7,16.7,0,0,0,45.32,29,1.31,1.31,0,0,0,44.48,27.33Z"/><path d="M38.54,10.11a1.31,1.31,0,1,0-1.37,2.23,13.24,13.24,0,0,1,6.31,10.29,1.32,1.32,0,0,0,1.31,1.21h.1a1.31,1.31,0,0,0,1.2-1.41A15.81,15.81,0,0,0,38.54,10.11Z"/><path d="M14,45.05l.18,0a2.4,2.4,0,0,1,1.07,2v3.8a5,5,0,0,0,5,5h5.38A1.32,1.32,0,0,0,27,54.5V5A4.39,4.39,0,0,0,21.34.84c-.68.19-1.36.42-2,.67A8.43,8.43,0,0,0,7.72,9.15a8.47,8.47,0,0,0-5.38,12.5,8.43,8.43,0,0,0,0,11.63,8.53,8.53,0,0,0,2.46,1.79A8.45,8.45,0,0,0,13,45.1C13.35,45.1,13.66,45.08,14,45.05ZM7.27,37.28a6.29,6.29,0,0,1,0-1.44,8.75,8.75,0,0,0,1.14.09,8.32,8.32,0,0,0,3.19-.63,1.3,1.3,0,0,0,.73-1.7,1.32,1.32,0,0,0-1.71-.73A5.83,5.83,0,0,1,4,23.68c.15.13.29.26.45.38a8.35,8.35,0,0,0,5.15,1.77,10.09,10.09,0,0,0,1.09-.06,9.22,9.22,0,0,0,1.47-.34,8.4,8.4,0,0,0,3.87,4.5,1.27,1.27,0,0,0,.62.16,1.31,1.31,0,0,0,.63-2.47A5.82,5.82,0,0,1,15,19.72a1.32,1.32,0,0,0-2.31-1.26,8.47,8.47,0,0,0-1,4.38,5.54,5.54,0,0,1-1.29.32A5.82,5.82,0,0,1,8.08,11.77a8.47,8.47,0,0,0,2.51,3.92,1.28,1.28,0,0,0,.86.32,1.31,1.31,0,0,0,.87-2.29,5.83,5.83,0,0,1,6.47-9.59A1.31,1.31,0,0,0,20.21,4c.6-.23,1.23-.43,1.85-.61a1.76,1.76,0,0,1,1.57.29A1.72,1.72,0,0,1,24.32,5v5a8,8,0,0,0-2-1.27,8.44,8.44,0,0,0-6.47-.25A1.31,1.31,0,0,0,16.8,11a5.82,5.82,0,0,1,7.49,3.45l0,.07V53.19H20.25a2.41,2.41,0,0,1-2.4-2.4V47a5,5,0,0,0-.9-2.84,8.39,8.39,0,0,0,4.51-6.55,1.31,1.31,0,0,0-2.61-.29,5.83,5.83,0,0,1-11.58,0Z"/></g></symbol></defs><g id="Layer_2" data-name="Layer 2"><g id="Layer_1-2" data-name="Layer 1"><use width="53.4" height="78.1" xlink:href="#Solutions"/></g></g></svg>